<mxfile host="app.diagrams.net" modified="2021-06-09T15:44:17.798Z" agent="5.0 (Windows)" etag="2aIXf-uCmBHpoxwuaBlm" version="14.7.6" type="github">
  <diagram id="6ZEzqiTByCHPcqeZpNDx" name="Page-1">
    <mxGraphModel dx="1502" dy="675" grid="1" gridSize="10" guides="1" tooltips="1" connect="1" arrows="1" fold="1" page="1" pageScale="1" pageWidth="827" pageHeight="1169" math="0" shadow="0">
      <root>
        <mxCell id="0" />
        <mxCell id="1" parent="0" />
        <mxCell id="H8-wfPgOFTC-B2AmOx2r-1" value="Studenten" style="shape=table;startSize=30;container=1;collapsible=1;childLayout=tableLayout;fixedRows=1;rowLines=0;fontStyle=1;align=center;resizeLast=1;" parent="1" vertex="1">
          <mxGeometry x="370" y="660" width="120" height="120" as="geometry" />
        </mxCell>
        <mxCell id="H8-wfPgOFTC-B2AmOx2r-2" value="" style="shape=partialRectangle;collapsible=0;dropTarget=0;pointerEvents=0;fillColor=none;top=0;left=0;bottom=1;right=0;points=[[0,0.5],[1,0.5]];portConstraint=eastwest;" parent="H8-wfPgOFTC-B2AmOx2r-1" vertex="1">
          <mxGeometry y="30" width="120" height="30" as="geometry" />
        </mxCell>
        <mxCell id="H8-wfPgOFTC-B2AmOx2r-3" value="PK" style="shape=partialRectangle;connectable=0;fillColor=none;top=0;left=0;bottom=0;right=0;fontStyle=1;overflow=hidden;" parent="H8-wfPgOFTC-B2AmOx2r-2" vertex="1">
          <mxGeometry width="30" height="30" as="geometry" />
        </mxCell>
        <mxCell id="H8-wfPgOFTC-B2AmOx2r-4" value="MatrNr" style="shape=partialRectangle;connectable=0;fillColor=none;top=0;left=0;bottom=0;right=0;align=left;spacingLeft=6;fontStyle=5;overflow=hidden;" parent="H8-wfPgOFTC-B2AmOx2r-2" vertex="1">
          <mxGeometry x="30" width="90" height="30" as="geometry" />
        </mxCell>
        <mxCell id="H8-wfPgOFTC-B2AmOx2r-5" value="" style="shape=partialRectangle;collapsible=0;dropTarget=0;pointerEvents=0;fillColor=none;top=0;left=0;bottom=0;right=0;points=[[0,0.5],[1,0.5]];portConstraint=eastwest;" parent="H8-wfPgOFTC-B2AmOx2r-1" vertex="1">
          <mxGeometry y="60" width="120" height="30" as="geometry" />
        </mxCell>
        <mxCell id="H8-wfPgOFTC-B2AmOx2r-6" value="" style="shape=partialRectangle;connectable=0;fillColor=none;top=0;left=0;bottom=0;right=0;editable=1;overflow=hidden;" parent="H8-wfPgOFTC-B2AmOx2r-5" vertex="1">
          <mxGeometry width="30" height="30" as="geometry" />
        </mxCell>
        <mxCell id="H8-wfPgOFTC-B2AmOx2r-7" value="Name" style="shape=partialRectangle;connectable=0;fillColor=none;top=0;left=0;bottom=0;right=0;align=left;spacingLeft=6;overflow=hidden;" parent="H8-wfPgOFTC-B2AmOx2r-5" vertex="1">
          <mxGeometry x="30" width="90" height="30" as="geometry" />
        </mxCell>
        <mxCell id="H8-wfPgOFTC-B2AmOx2r-8" value="" style="shape=partialRectangle;collapsible=0;dropTarget=0;pointerEvents=0;fillColor=none;top=0;left=0;bottom=0;right=0;points=[[0,0.5],[1,0.5]];portConstraint=eastwest;" parent="H8-wfPgOFTC-B2AmOx2r-1" vertex="1">
          <mxGeometry y="90" width="120" height="30" as="geometry" />
        </mxCell>
        <mxCell id="H8-wfPgOFTC-B2AmOx2r-9" value="" style="shape=partialRectangle;connectable=0;fillColor=none;top=0;left=0;bottom=0;right=0;editable=1;overflow=hidden;" parent="H8-wfPgOFTC-B2AmOx2r-8" vertex="1">
          <mxGeometry width="30" height="30" as="geometry" />
        </mxCell>
        <mxCell id="H8-wfPgOFTC-B2AmOx2r-10" value="Semester" style="shape=partialRectangle;connectable=0;fillColor=none;top=0;left=0;bottom=0;right=0;align=left;spacingLeft=6;overflow=hidden;" parent="H8-wfPgOFTC-B2AmOx2r-8" vertex="1">
          <mxGeometry x="30" width="90" height="30" as="geometry" />
        </mxCell>
        <mxCell id="H8-wfPgOFTC-B2AmOx2r-14" value="Vorlesung" style="shape=table;startSize=30;container=1;collapsible=1;childLayout=tableLayout;fixedRows=1;rowLines=0;fontStyle=1;align=center;resizeLast=1;rounded=0;" parent="1" vertex="1">
          <mxGeometry x="550" y="500" width="110" height="150" as="geometry" />
        </mxCell>
        <mxCell id="H8-wfPgOFTC-B2AmOx2r-15" value="" style="shape=partialRectangle;collapsible=0;dropTarget=0;pointerEvents=0;fillColor=none;top=0;left=0;bottom=1;right=0;points=[[0,0.5],[1,0.5]];portConstraint=eastwest;" parent="H8-wfPgOFTC-B2AmOx2r-14" vertex="1">
          <mxGeometry y="30" width="110" height="30" as="geometry" />
        </mxCell>
        <mxCell id="H8-wfPgOFTC-B2AmOx2r-16" value="PK" style="shape=partialRectangle;connectable=0;fillColor=none;top=0;left=0;bottom=0;right=0;fontStyle=1;overflow=hidden;" parent="H8-wfPgOFTC-B2AmOx2r-15" vertex="1">
          <mxGeometry width="30" height="30" as="geometry" />
        </mxCell>
        <mxCell id="H8-wfPgOFTC-B2AmOx2r-17" value="VorlNr" style="shape=partialRectangle;connectable=0;fillColor=none;top=0;left=0;bottom=0;right=0;align=left;spacingLeft=6;fontStyle=5;overflow=hidden;" parent="H8-wfPgOFTC-B2AmOx2r-15" vertex="1">
          <mxGeometry x="30" width="80" height="30" as="geometry" />
        </mxCell>
        <mxCell id="H8-wfPgOFTC-B2AmOx2r-24" value="" style="shape=partialRectangle;collapsible=0;dropTarget=0;pointerEvents=0;fillColor=none;top=0;left=0;bottom=0;right=0;points=[[0,0.5],[1,0.5]];portConstraint=eastwest;" parent="H8-wfPgOFTC-B2AmOx2r-14" vertex="1">
          <mxGeometry y="60" width="110" height="30" as="geometry" />
        </mxCell>
        <mxCell id="H8-wfPgOFTC-B2AmOx2r-25" value="FK" style="shape=partialRectangle;connectable=0;fillColor=none;top=0;left=0;bottom=0;right=0;editable=1;overflow=hidden;" parent="H8-wfPgOFTC-B2AmOx2r-24" vertex="1">
          <mxGeometry width="30" height="30" as="geometry" />
        </mxCell>
        <mxCell id="H8-wfPgOFTC-B2AmOx2r-26" value="gelesenVon" style="shape=partialRectangle;connectable=0;fillColor=none;top=0;left=0;bottom=0;right=0;align=left;spacingLeft=6;overflow=hidden;" parent="H8-wfPgOFTC-B2AmOx2r-24" vertex="1">
          <mxGeometry x="30" width="80" height="30" as="geometry" />
        </mxCell>
        <mxCell id="H8-wfPgOFTC-B2AmOx2r-18" value="" style="shape=partialRectangle;collapsible=0;dropTarget=0;pointerEvents=0;fillColor=none;top=0;left=0;bottom=0;right=0;points=[[0,0.5],[1,0.5]];portConstraint=eastwest;" parent="H8-wfPgOFTC-B2AmOx2r-14" vertex="1">
          <mxGeometry y="90" width="110" height="30" as="geometry" />
        </mxCell>
        <mxCell id="H8-wfPgOFTC-B2AmOx2r-19" value="" style="shape=partialRectangle;connectable=0;fillColor=none;top=0;left=0;bottom=0;right=0;editable=1;overflow=hidden;" parent="H8-wfPgOFTC-B2AmOx2r-18" vertex="1">
          <mxGeometry width="30" height="30" as="geometry" />
        </mxCell>
        <mxCell id="H8-wfPgOFTC-B2AmOx2r-20" value="Titel" style="shape=partialRectangle;connectable=0;fillColor=none;top=0;left=0;bottom=0;right=0;align=left;spacingLeft=6;overflow=hidden;" parent="H8-wfPgOFTC-B2AmOx2r-18" vertex="1">
          <mxGeometry x="30" width="80" height="30" as="geometry" />
        </mxCell>
        <mxCell id="H8-wfPgOFTC-B2AmOx2r-21" value="" style="shape=partialRectangle;collapsible=0;dropTarget=0;pointerEvents=0;fillColor=none;top=0;left=0;bottom=0;right=0;points=[[0,0.5],[1,0.5]];portConstraint=eastwest;" parent="H8-wfPgOFTC-B2AmOx2r-14" vertex="1">
          <mxGeometry y="120" width="110" height="30" as="geometry" />
        </mxCell>
        <mxCell id="H8-wfPgOFTC-B2AmOx2r-22" value="" style="shape=partialRectangle;connectable=0;fillColor=none;top=0;left=0;bottom=0;right=0;editable=1;overflow=hidden;" parent="H8-wfPgOFTC-B2AmOx2r-21" vertex="1">
          <mxGeometry width="30" height="30" as="geometry" />
        </mxCell>
        <mxCell id="H8-wfPgOFTC-B2AmOx2r-23" value="SWS" style="shape=partialRectangle;connectable=0;fillColor=none;top=0;left=0;bottom=0;right=0;align=left;spacingLeft=6;overflow=hidden;" parent="H8-wfPgOFTC-B2AmOx2r-21" vertex="1">
          <mxGeometry x="30" width="80" height="30" as="geometry" />
        </mxCell>
        <mxCell id="WUxSzj_yl-gBvt-Xqajz-6" value="" style="edgeStyle=entityRelationEdgeStyle;fontSize=12;html=1;endArrow=ERmandOne;startArrow=ERmandOne;entryX=1;entryY=0.5;entryDx=0;entryDy=0;exitX=1;exitY=0.5;exitDx=0;exitDy=0;" parent="H8-wfPgOFTC-B2AmOx2r-14" source="H8-wfPgOFTC-B2AmOx2r-18" target="H8-wfPgOFTC-B2AmOx2r-15" edge="1">
          <mxGeometry width="100" height="100" relative="1" as="geometry">
            <mxPoint x="110" y="340" as="sourcePoint" />
            <mxPoint x="210" y="240" as="targetPoint" />
          </mxGeometry>
        </mxCell>
        <mxCell id="WUxSzj_yl-gBvt-Xqajz-7" value="&lt;div&gt;voraussetzen&lt;/div&gt;" style="edgeLabel;html=1;align=center;verticalAlign=middle;resizable=0;points=[];" parent="WUxSzj_yl-gBvt-Xqajz-6" vertex="1" connectable="0">
          <mxGeometry x="0.1265" y="2" relative="1" as="geometry">
            <mxPoint x="42" y="2" as="offset" />
          </mxGeometry>
        </mxCell>
        <mxCell id="H8-wfPgOFTC-B2AmOx2r-28" value="" style="shape=or;whiteSpace=wrap;html=1;rotation=-90;" parent="1" vertex="1">
          <mxGeometry x="430" y="164.5" width="40" height="60" as="geometry" />
        </mxCell>
        <mxCell id="H8-wfPgOFTC-B2AmOx2r-29" value="" style="shape=umlDestroy;whiteSpace=wrap;html=1;strokeWidth=3;" parent="1" vertex="1">
          <mxGeometry x="430" y="180" width="40" height="29" as="geometry" />
        </mxCell>
        <mxCell id="H8-wfPgOFTC-B2AmOx2r-46" value="" style="endArrow=none;html=1;rounded=0;entryX=0.5;entryY=0;entryDx=0;entryDy=0;" parent="1" target="wUR80qAELujqM1dRtiSb-3" edge="1">
          <mxGeometry relative="1" as="geometry">
            <mxPoint x="600" y="250" as="sourcePoint" />
            <mxPoint x="592" y="280" as="targetPoint" />
          </mxGeometry>
        </mxCell>
        <mxCell id="Qw-vWrYAbur7sUExyfnh-15" value="" style="endArrow=none;html=1;rounded=0;entryX=0.5;entryY=0;entryDx=0;entryDy=0;" parent="1" target="wUR80qAELujqM1dRtiSb-16" edge="1">
          <mxGeometry relative="1" as="geometry">
            <mxPoint x="340" y="250" as="sourcePoint" />
            <mxPoint x="162" y="300" as="targetPoint" />
          </mxGeometry>
        </mxCell>
        <mxCell id="Qw-vWrYAbur7sUExyfnh-19" value="" style="endArrow=none;html=1;rounded=0;" parent="1" edge="1">
          <mxGeometry relative="1" as="geometry">
            <mxPoint x="340" y="250" as="sourcePoint" />
            <mxPoint x="600" y="250" as="targetPoint" />
          </mxGeometry>
        </mxCell>
        <mxCell id="wUR80qAELujqM1dRtiSb-3" value="Assistenten" style="shape=table;startSize=30;container=1;collapsible=1;childLayout=tableLayout;fixedRows=1;rowLines=0;fontStyle=1;align=center;resizeLast=1;" parent="1" vertex="1">
          <mxGeometry x="540" y="320" width="120" height="130" as="geometry" />
        </mxCell>
        <mxCell id="wUR80qAELujqM1dRtiSb-4" value="" style="shape=partialRectangle;collapsible=0;dropTarget=0;pointerEvents=0;fillColor=none;top=0;left=0;bottom=1;right=0;points=[[0,0.5],[1,0.5]];portConstraint=eastwest;" parent="wUR80qAELujqM1dRtiSb-3" vertex="1">
          <mxGeometry y="30" width="120" height="30" as="geometry" />
        </mxCell>
        <mxCell id="wUR80qAELujqM1dRtiSb-5" value="PK" style="shape=partialRectangle;connectable=0;fillColor=none;top=0;left=0;bottom=0;right=0;fontStyle=1;overflow=hidden;" parent="wUR80qAELujqM1dRtiSb-4" vertex="1">
          <mxGeometry width="30" height="30" as="geometry" />
        </mxCell>
        <mxCell id="wUR80qAELujqM1dRtiSb-6" value="PersNr" style="shape=partialRectangle;connectable=0;fillColor=none;top=0;left=0;bottom=0;right=0;align=left;spacingLeft=6;fontStyle=5;overflow=hidden;" parent="wUR80qAELujqM1dRtiSb-4" vertex="1">
          <mxGeometry x="30" width="90" height="30" as="geometry" />
        </mxCell>
        <mxCell id="wUR80qAELujqM1dRtiSb-10" value="" style="shape=partialRectangle;collapsible=0;dropTarget=0;pointerEvents=0;fillColor=none;top=0;left=0;bottom=0;right=0;points=[[0,0.5],[1,0.5]];portConstraint=eastwest;" parent="wUR80qAELujqM1dRtiSb-3" vertex="1">
          <mxGeometry y="60" width="120" height="30" as="geometry" />
        </mxCell>
        <mxCell id="wUR80qAELujqM1dRtiSb-11" value="FK" style="shape=partialRectangle;connectable=0;fillColor=none;top=0;left=0;bottom=0;right=0;editable=1;overflow=hidden;" parent="wUR80qAELujqM1dRtiSb-10" vertex="1">
          <mxGeometry width="30" height="30" as="geometry" />
        </mxCell>
        <mxCell id="wUR80qAELujqM1dRtiSb-12" value="Boss" style="shape=partialRectangle;connectable=0;fillColor=none;top=0;left=0;bottom=0;right=0;align=left;spacingLeft=6;overflow=hidden;" parent="wUR80qAELujqM1dRtiSb-10" vertex="1">
          <mxGeometry x="30" width="90" height="30" as="geometry" />
        </mxCell>
        <mxCell id="wUR80qAELujqM1dRtiSb-13" value="" style="shape=partialRectangle;collapsible=0;dropTarget=0;pointerEvents=0;fillColor=none;top=0;left=0;bottom=0;right=0;points=[[0,0.5],[1,0.5]];portConstraint=eastwest;" parent="wUR80qAELujqM1dRtiSb-3" vertex="1">
          <mxGeometry y="90" width="120" height="30" as="geometry" />
        </mxCell>
        <mxCell id="wUR80qAELujqM1dRtiSb-14" value="" style="shape=partialRectangle;connectable=0;fillColor=none;top=0;left=0;bottom=0;right=0;editable=1;overflow=hidden;" parent="wUR80qAELujqM1dRtiSb-13" vertex="1">
          <mxGeometry width="30" height="30" as="geometry" />
        </mxCell>
        <mxCell id="wUR80qAELujqM1dRtiSb-15" value="Fachgebiet" style="shape=partialRectangle;connectable=0;fillColor=none;top=0;left=0;bottom=0;right=0;align=left;spacingLeft=6;overflow=hidden;" parent="wUR80qAELujqM1dRtiSb-13" vertex="1">
          <mxGeometry x="30" width="90" height="30" as="geometry" />
        </mxCell>
        <mxCell id="wUR80qAELujqM1dRtiSb-16" value="Professoren" style="shape=table;startSize=30;container=1;collapsible=1;childLayout=tableLayout;fixedRows=1;rowLines=0;fontStyle=1;align=center;resizeLast=1;" parent="1" vertex="1">
          <mxGeometry x="280" y="330" width="120" height="120" as="geometry" />
        </mxCell>
        <mxCell id="wUR80qAELujqM1dRtiSb-17" value="" style="shape=partialRectangle;collapsible=0;dropTarget=0;pointerEvents=0;fillColor=none;top=0;left=0;bottom=1;right=0;points=[[0,0.5],[1,0.5]];portConstraint=eastwest;" parent="wUR80qAELujqM1dRtiSb-16" vertex="1">
          <mxGeometry y="30" width="120" height="30" as="geometry" />
        </mxCell>
        <mxCell id="wUR80qAELujqM1dRtiSb-18" value="PK" style="shape=partialRectangle;connectable=0;fillColor=none;top=0;left=0;bottom=0;right=0;fontStyle=1;overflow=hidden;" parent="wUR80qAELujqM1dRtiSb-17" vertex="1">
          <mxGeometry width="30" height="30" as="geometry" />
        </mxCell>
        <mxCell id="wUR80qAELujqM1dRtiSb-19" value="PersNr" style="shape=partialRectangle;connectable=0;fillColor=none;top=0;left=0;bottom=0;right=0;align=left;spacingLeft=6;fontStyle=5;overflow=hidden;" parent="wUR80qAELujqM1dRtiSb-17" vertex="1">
          <mxGeometry x="30" width="90" height="30" as="geometry" />
        </mxCell>
        <mxCell id="wUR80qAELujqM1dRtiSb-26" value="" style="shape=partialRectangle;collapsible=0;dropTarget=0;pointerEvents=0;fillColor=none;top=0;left=0;bottom=0;right=0;points=[[0,0.5],[1,0.5]];portConstraint=eastwest;" parent="wUR80qAELujqM1dRtiSb-16" vertex="1">
          <mxGeometry y="60" width="120" height="30" as="geometry" />
        </mxCell>
        <mxCell id="wUR80qAELujqM1dRtiSb-27" value="" style="shape=partialRectangle;connectable=0;fillColor=none;top=0;left=0;bottom=0;right=0;editable=1;overflow=hidden;" parent="wUR80qAELujqM1dRtiSb-26" vertex="1">
          <mxGeometry width="30" height="30" as="geometry" />
        </mxCell>
        <mxCell id="wUR80qAELujqM1dRtiSb-28" value="Rang" style="shape=partialRectangle;connectable=0;fillColor=none;top=0;left=0;bottom=0;right=0;align=left;spacingLeft=6;overflow=hidden;" parent="wUR80qAELujqM1dRtiSb-26" vertex="1">
          <mxGeometry x="30" width="90" height="30" as="geometry" />
        </mxCell>
        <mxCell id="wUR80qAELujqM1dRtiSb-20" value="" style="shape=partialRectangle;collapsible=0;dropTarget=0;pointerEvents=0;fillColor=none;top=0;left=0;bottom=0;right=0;points=[[0,0.5],[1,0.5]];portConstraint=eastwest;" parent="wUR80qAELujqM1dRtiSb-16" vertex="1">
          <mxGeometry y="90" width="120" height="30" as="geometry" />
        </mxCell>
        <mxCell id="wUR80qAELujqM1dRtiSb-21" value="" style="shape=partialRectangle;connectable=0;fillColor=none;top=0;left=0;bottom=0;right=0;editable=1;overflow=hidden;" parent="wUR80qAELujqM1dRtiSb-20" vertex="1">
          <mxGeometry width="30" height="30" as="geometry" />
        </mxCell>
        <mxCell id="wUR80qAELujqM1dRtiSb-22" value="Raum" style="shape=partialRectangle;connectable=0;fillColor=none;top=0;left=0;bottom=0;right=0;align=left;spacingLeft=6;overflow=hidden;" parent="wUR80qAELujqM1dRtiSb-20" vertex="1">
          <mxGeometry x="30" width="90" height="30" as="geometry" />
        </mxCell>
        <mxCell id="GTf8PSnhSUS8eDT8XuDn-18" value="" style="edgeStyle=entityRelationEdgeStyle;fontSize=12;html=1;endArrow=ERzeroToMany;endFill=1;startArrow=ERzeroToMany;" parent="1" source="H8-wfPgOFTC-B2AmOx2r-5" target="H8-wfPgOFTC-B2AmOx2r-18" edge="1">
          <mxGeometry width="100" height="100" relative="1" as="geometry">
            <mxPoint x="617.5" y="430.57" as="sourcePoint" />
            <mxPoint x="717.5" y="330.57" as="targetPoint" />
          </mxGeometry>
        </mxCell>
        <mxCell id="GTf8PSnhSUS8eDT8XuDn-19" value="&lt;div&gt;hören&lt;/div&gt;" style="edgeLabel;html=1;align=center;verticalAlign=middle;resizable=0;points=[];" parent="GTf8PSnhSUS8eDT8XuDn-18" vertex="1" connectable="0">
          <mxGeometry x="0.019" relative="1" as="geometry">
            <mxPoint x="-20" y="-23" as="offset" />
          </mxGeometry>
        </mxCell>
        <mxCell id="GTf8PSnhSUS8eDT8XuDn-26" value="" style="endArrow=none;html=1;rounded=0;exitX=0.5;exitY=1;exitDx=0;exitDy=0;entryX=1;entryY=0.5;entryDx=0;entryDy=0;entryPerimeter=0;" parent="1" source="GTf8PSnhSUS8eDT8XuDn-27" target="H8-wfPgOFTC-B2AmOx2r-28" edge="1">
          <mxGeometry relative="1" as="geometry">
            <mxPoint x="243" y="120" as="sourcePoint" />
            <mxPoint x="350" y="188" as="targetPoint" />
          </mxGeometry>
        </mxCell>
        <mxCell id="GTf8PSnhSUS8eDT8XuDn-27" value="Personal" style="shape=table;startSize=30;container=1;collapsible=1;childLayout=tableLayout;fixedRows=1;rowLines=0;fontStyle=1;align=center;resizeLast=1;" parent="1" vertex="1">
          <mxGeometry x="360" y="40" width="180" height="100" as="geometry" />
        </mxCell>
        <mxCell id="GTf8PSnhSUS8eDT8XuDn-28" value="" style="shape=partialRectangle;collapsible=0;dropTarget=0;pointerEvents=0;fillColor=none;top=0;left=0;bottom=1;right=0;points=[[0,0.5],[1,0.5]];portConstraint=eastwest;" parent="GTf8PSnhSUS8eDT8XuDn-27" vertex="1">
          <mxGeometry y="30" width="180" height="30" as="geometry" />
        </mxCell>
        <mxCell id="GTf8PSnhSUS8eDT8XuDn-29" value="PK" style="shape=partialRectangle;connectable=0;fillColor=none;top=0;left=0;bottom=0;right=0;fontStyle=1;overflow=hidden;" parent="GTf8PSnhSUS8eDT8XuDn-28" vertex="1">
          <mxGeometry width="30" height="30" as="geometry" />
        </mxCell>
        <mxCell id="GTf8PSnhSUS8eDT8XuDn-30" value="PersNr" style="shape=partialRectangle;connectable=0;fillColor=none;top=0;left=0;bottom=0;right=0;align=left;spacingLeft=6;fontStyle=5;overflow=hidden;" parent="GTf8PSnhSUS8eDT8XuDn-28" vertex="1">
          <mxGeometry x="30" width="150" height="30" as="geometry" />
        </mxCell>
        <mxCell id="GTf8PSnhSUS8eDT8XuDn-31" value="" style="shape=partialRectangle;collapsible=0;dropTarget=0;pointerEvents=0;fillColor=none;top=0;left=0;bottom=0;right=0;points=[[0,0.5],[1,0.5]];portConstraint=eastwest;" parent="GTf8PSnhSUS8eDT8XuDn-27" vertex="1">
          <mxGeometry y="60" width="180" height="30" as="geometry" />
        </mxCell>
        <mxCell id="GTf8PSnhSUS8eDT8XuDn-32" value="" style="shape=partialRectangle;connectable=0;fillColor=none;top=0;left=0;bottom=0;right=0;editable=1;overflow=hidden;" parent="GTf8PSnhSUS8eDT8XuDn-31" vertex="1">
          <mxGeometry width="30" height="30" as="geometry" />
        </mxCell>
        <mxCell id="GTf8PSnhSUS8eDT8XuDn-33" value="Name" style="shape=partialRectangle;connectable=0;fillColor=none;top=0;left=0;bottom=0;right=0;align=left;spacingLeft=6;overflow=hidden;" parent="GTf8PSnhSUS8eDT8XuDn-31" vertex="1">
          <mxGeometry x="30" width="150" height="30" as="geometry" />
        </mxCell>
        <mxCell id="GTf8PSnhSUS8eDT8XuDn-58" value="" style="endArrow=none;html=1;rounded=0;exitX=0;exitY=0.5;exitDx=0;exitDy=0;exitPerimeter=0;" parent="1" source="H8-wfPgOFTC-B2AmOx2r-28" edge="1">
          <mxGeometry relative="1" as="geometry">
            <mxPoint x="380" y="160" as="sourcePoint" />
            <mxPoint x="450" y="250" as="targetPoint" />
          </mxGeometry>
        </mxCell>
        <mxCell id="GTf8PSnhSUS8eDT8XuDn-70" value="pruefen" style="shape=table;startSize=30;container=1;collapsible=1;childLayout=tableLayout;fixedRows=1;rowLines=0;fontStyle=1;align=center;resizeLast=1;rounded=1;" parent="1" vertex="1">
          <mxGeometry x="80" y="470" width="120" height="150" as="geometry" />
        </mxCell>
        <mxCell id="GTf8PSnhSUS8eDT8XuDn-71" value="" style="shape=partialRectangle;collapsible=0;dropTarget=0;pointerEvents=0;fillColor=none;top=0;left=0;bottom=1;right=0;points=[[0,0.5],[1,0.5]];portConstraint=eastwest;" parent="GTf8PSnhSUS8eDT8XuDn-70" vertex="1">
          <mxGeometry y="30" width="120" height="30" as="geometry" />
        </mxCell>
        <mxCell id="GTf8PSnhSUS8eDT8XuDn-72" value="FK" style="shape=partialRectangle;connectable=0;fillColor=none;top=0;left=0;bottom=0;right=0;fontStyle=1;overflow=hidden;" parent="GTf8PSnhSUS8eDT8XuDn-71" vertex="1">
          <mxGeometry width="30" height="30" as="geometry" />
        </mxCell>
        <mxCell id="GTf8PSnhSUS8eDT8XuDn-73" value="MatrNr" style="shape=partialRectangle;connectable=0;fillColor=none;top=0;left=0;bottom=0;right=0;align=left;spacingLeft=6;fontStyle=5;overflow=hidden;" parent="GTf8PSnhSUS8eDT8XuDn-71" vertex="1">
          <mxGeometry x="30" width="90" height="30" as="geometry" />
        </mxCell>
        <mxCell id="GTf8PSnhSUS8eDT8XuDn-80" style="shape=partialRectangle;collapsible=0;dropTarget=0;pointerEvents=0;fillColor=none;top=0;left=0;bottom=1;right=0;points=[[0,0.5],[1,0.5]];portConstraint=eastwest;" parent="GTf8PSnhSUS8eDT8XuDn-70" vertex="1">
          <mxGeometry y="60" width="120" height="30" as="geometry" />
        </mxCell>
        <mxCell id="GTf8PSnhSUS8eDT8XuDn-81" value="FK" style="shape=partialRectangle;connectable=0;fillColor=none;top=0;left=0;bottom=0;right=0;fontStyle=1;overflow=hidden;" parent="GTf8PSnhSUS8eDT8XuDn-80" vertex="1">
          <mxGeometry width="30" height="30" as="geometry" />
        </mxCell>
        <mxCell id="GTf8PSnhSUS8eDT8XuDn-82" value="VorlNr" style="shape=partialRectangle;connectable=0;fillColor=none;top=0;left=0;bottom=0;right=0;align=left;spacingLeft=6;fontStyle=5;overflow=hidden;" parent="GTf8PSnhSUS8eDT8XuDn-80" vertex="1">
          <mxGeometry x="30" width="90" height="30" as="geometry" />
        </mxCell>
        <mxCell id="GTf8PSnhSUS8eDT8XuDn-74" value="" style="shape=partialRectangle;collapsible=0;dropTarget=0;pointerEvents=0;fillColor=none;top=0;left=0;bottom=0;right=0;points=[[0,0.5],[1,0.5]];portConstraint=eastwest;" parent="GTf8PSnhSUS8eDT8XuDn-70" vertex="1">
          <mxGeometry y="90" width="120" height="30" as="geometry" />
        </mxCell>
        <mxCell id="GTf8PSnhSUS8eDT8XuDn-75" value="FK" style="shape=partialRectangle;connectable=0;fillColor=none;top=0;left=0;bottom=0;right=0;editable=1;overflow=hidden;" parent="GTf8PSnhSUS8eDT8XuDn-74" vertex="1">
          <mxGeometry width="30" height="30" as="geometry" />
        </mxCell>
        <mxCell id="GTf8PSnhSUS8eDT8XuDn-76" value="PersNr" style="shape=partialRectangle;connectable=0;fillColor=none;top=0;left=0;bottom=0;right=0;align=left;spacingLeft=6;overflow=hidden;" parent="GTf8PSnhSUS8eDT8XuDn-74" vertex="1">
          <mxGeometry x="30" width="90" height="30" as="geometry" />
        </mxCell>
        <mxCell id="GTf8PSnhSUS8eDT8XuDn-77" value="" style="shape=partialRectangle;collapsible=0;dropTarget=0;pointerEvents=0;fillColor=none;top=0;left=0;bottom=0;right=0;points=[[0,0.5],[1,0.5]];portConstraint=eastwest;" parent="GTf8PSnhSUS8eDT8XuDn-70" vertex="1">
          <mxGeometry y="120" width="120" height="30" as="geometry" />
        </mxCell>
        <mxCell id="GTf8PSnhSUS8eDT8XuDn-78" value="" style="shape=partialRectangle;connectable=0;fillColor=none;top=0;left=0;bottom=0;right=0;editable=1;overflow=hidden;" parent="GTf8PSnhSUS8eDT8XuDn-77" vertex="1">
          <mxGeometry width="30" height="30" as="geometry" />
        </mxCell>
        <mxCell id="GTf8PSnhSUS8eDT8XuDn-79" value="Note" style="shape=partialRectangle;connectable=0;fillColor=none;top=0;left=0;bottom=0;right=0;align=left;spacingLeft=6;overflow=hidden;" parent="GTf8PSnhSUS8eDT8XuDn-77" vertex="1">
          <mxGeometry x="30" width="90" height="30" as="geometry" />
        </mxCell>
        <mxCell id="GTf8PSnhSUS8eDT8XuDn-86" value="" style="edgeStyle=elbowEdgeStyle;fontSize=12;html=1;endArrow=ERzeroToMany;startArrow=ERmandOne;" parent="1" source="H8-wfPgOFTC-B2AmOx2r-2" target="GTf8PSnhSUS8eDT8XuDn-71" edge="1">
          <mxGeometry width="100" height="100" relative="1" as="geometry">
            <mxPoint x="470" y="320" as="sourcePoint" />
            <mxPoint x="570" y="220" as="targetPoint" />
          </mxGeometry>
        </mxCell>
        <mxCell id="GTf8PSnhSUS8eDT8XuDn-93" value="&lt;div&gt;&lt;br&gt;&lt;/div&gt;" style="edgeLabel;html=1;align=center;verticalAlign=middle;resizable=0;points=[];" parent="GTf8PSnhSUS8eDT8XuDn-86" vertex="1" connectable="0">
          <mxGeometry x="-0.2171" y="-1" relative="1" as="geometry">
            <mxPoint x="-19" y="15" as="offset" />
          </mxGeometry>
        </mxCell>
        <mxCell id="WUxSzj_yl-gBvt-Xqajz-9" value="&lt;div&gt;pruefen&lt;/div&gt;" style="edgeLabel;html=1;align=center;verticalAlign=middle;resizable=0;points=[];" parent="GTf8PSnhSUS8eDT8XuDn-86" vertex="1" connectable="0">
          <mxGeometry x="0.0974" relative="1" as="geometry">
            <mxPoint x="25" as="offset" />
          </mxGeometry>
        </mxCell>
        <mxCell id="GTf8PSnhSUS8eDT8XuDn-94" value="" style="edgeStyle=entityRelationEdgeStyle;fontSize=12;html=1;endArrow=ERzeroToMany;startArrow=ERmandOne;" parent="1" source="wUR80qAELujqM1dRtiSb-17" target="wUR80qAELujqM1dRtiSb-10" edge="1">
          <mxGeometry width="100" height="100" relative="1" as="geometry">
            <mxPoint x="370" y="560" as="sourcePoint" />
            <mxPoint x="470" y="460" as="targetPoint" />
          </mxGeometry>
        </mxCell>
        <mxCell id="GTf8PSnhSUS8eDT8XuDn-96" value="" style="edgeStyle=elbowEdgeStyle;fontSize=12;html=1;endArrow=ERzeroToMany;startArrow=ERmandOne;entryX=0;entryY=0.5;entryDx=0;entryDy=0;exitX=1;exitY=0.5;exitDx=0;exitDy=0;" parent="1" source="wUR80qAELujqM1dRtiSb-26" target="H8-wfPgOFTC-B2AmOx2r-24" edge="1">
          <mxGeometry width="100" height="100" relative="1" as="geometry">
            <mxPoint x="320" y="395" as="sourcePoint" />
            <mxPoint x="460" y="450" as="targetPoint" />
          </mxGeometry>
        </mxCell>
        <mxCell id="GTf8PSnhSUS8eDT8XuDn-102" value="&lt;div&gt;&lt;br&gt;&lt;/div&gt;&lt;div&gt;&lt;br&gt;&lt;/div&gt;" style="edgeLabel;html=1;align=center;verticalAlign=middle;resizable=0;points=[];" parent="GTf8PSnhSUS8eDT8XuDn-96" vertex="1" connectable="0">
          <mxGeometry x="0.0264" y="1" relative="1" as="geometry">
            <mxPoint x="19" y="-8" as="offset" />
          </mxGeometry>
        </mxCell>
        <mxCell id="GTf8PSnhSUS8eDT8XuDn-98" value="" style="edgeStyle=elbowEdgeStyle;fontSize=12;html=1;endArrow=ERzeroToMany;startArrow=ERmandOne;exitX=0;exitY=0.5;exitDx=0;exitDy=0;entryX=1;entryY=0.5;entryDx=0;entryDy=0;" parent="1" source="wUR80qAELujqM1dRtiSb-17" target="GTf8PSnhSUS8eDT8XuDn-74" edge="1">
          <mxGeometry width="100" height="100" relative="1" as="geometry">
            <mxPoint x="210" y="465" as="sourcePoint" />
            <mxPoint x="150" y="625.5700000000002" as="targetPoint" />
            <Array as="points">
              <mxPoint x="250" y="480" />
              <mxPoint x="280" y="480" />
            </Array>
          </mxGeometry>
        </mxCell>
        <mxCell id="WUxSzj_yl-gBvt-Xqajz-8" value="pruefen" style="edgeLabel;html=1;align=center;verticalAlign=middle;resizable=0;points=[];" parent="GTf8PSnhSUS8eDT8XuDn-98" vertex="1" connectable="0">
          <mxGeometry x="-0.3147" y="-1" relative="1" as="geometry">
            <mxPoint x="-29" y="-1" as="offset" />
          </mxGeometry>
        </mxCell>
        <mxCell id="GTf8PSnhSUS8eDT8XuDn-103" value="&lt;font style=&quot;font-size: 15px&quot;&gt;&lt;font style=&quot;font-size: 15px&quot;&gt;Die IS A &lt;br&gt;&lt;/font&gt;&lt;/font&gt;&lt;div style=&quot;font-size: 15px&quot;&gt;&lt;font style=&quot;font-size: 15px&quot;&gt;ist nach der vertikalen Fragmentierung umgesetzt.&lt;/font&gt;&lt;/div&gt;&lt;div style=&quot;font-size: 15px&quot;&gt;&lt;font style=&quot;font-size: 15px&quot;&gt;Pros:&lt;/font&gt;&lt;/div&gt;&lt;div style=&quot;font-size: 15px&quot;&gt;&lt;font style=&quot;font-size: 15px&quot;&gt;- Professoren und Assitenten haben nur die eigenen Attribute&lt;/font&gt;&lt;/div&gt;&lt;div style=&quot;font-size: 15px&quot;&gt;&lt;font style=&quot;font-size: 15px&quot;&gt;Cons:&lt;/font&gt;&lt;/div&gt;&lt;div style=&quot;font-size: 15px&quot;&gt;&lt;font style=&quot;font-size: 15px&quot;&gt;- Um einen vollständigen Professor oder Assiten abbzubilden muss man die Personal Nummer als Fk einsetzten. Dadruch wird die Disjunktheit verletzt.&lt;b&gt;&lt;br&gt;&lt;/b&gt;&lt;/font&gt;&lt;/div&gt;" style="text;html=1;strokeColor=none;fillColor=none;align=center;verticalAlign=middle;whiteSpace=wrap;rounded=0;" parent="1" vertex="1">
          <mxGeometry x="60" y="70" width="260" height="210" as="geometry" />
        </mxCell>
        <mxCell id="GTf8PSnhSUS8eDT8XuDn-106" value="&lt;h1&gt;Relationales Schema&lt;/h1&gt;&lt;div style=&quot;font-size: 14px&quot;&gt;Personal{[&lt;u&gt;PersNr,&lt;/u&gt;Name]}&lt;/div&gt;&lt;div style=&quot;font-size: 14px&quot;&gt;Professoren{[&lt;u&gt;PersNr,&lt;/u&gt; Rang, Raum]}&lt;/div&gt;&lt;div style=&quot;font-size: 14px&quot;&gt;Assistenten{[&lt;u&gt;PersNr&lt;/u&gt;, Boss, Fachgebiet]}&lt;/div&gt;&lt;div style=&quot;font-size: 14px&quot;&gt;Studenten{[&lt;u&gt;MatrNr&lt;/u&gt;, Name, Semester]}&lt;br&gt;&lt;/div&gt;&lt;div style=&quot;font-size: 14px&quot;&gt;Vorlesungen{[&lt;u&gt;VorlNr&lt;/u&gt;, Titel, SWS, gelesenVon]}&lt;/div&gt;&lt;div style=&quot;font-size: 14px&quot;&gt;pruefen{&lt;u&gt;MatrNr&lt;/u&gt;, &lt;u&gt;VorlNr&lt;/u&gt;, PersNr, Note]}&lt;/div&gt;&lt;div style=&quot;font-size: 14px&quot;&gt;hoeren{[&lt;u&gt;MatrNr&lt;/u&gt;, &lt;u&gt;VorlNr&lt;/u&gt;]}&lt;/div&gt;&lt;div style=&quot;font-size: 14px&quot;&gt;voraussetzen{[&lt;u&gt;Vorgaenger&lt;/u&gt;, &lt;u&gt;Nachfolger&lt;/u&gt;]}&lt;/div&gt;&lt;div style=&quot;font-size: 14px&quot;&gt;&lt;br&gt;&lt;/div&gt;" style="text;html=1;strokeColor=none;fillColor=none;spacing=5;spacingTop=-20;whiteSpace=wrap;overflow=hidden;rounded=0;" parent="1" vertex="1">
          <mxGeometry x="100" y="800" width="450" height="220" as="geometry" />
        </mxCell>
        <mxCell id="WUxSzj_yl-gBvt-Xqajz-1" value="" style="edgeStyle=elbowEdgeStyle;fontSize=12;html=1;endArrow=ERzeroToMany;startArrow=ERmandOne;exitX=0;exitY=0.5;exitDx=0;exitDy=0;" parent="1" source="H8-wfPgOFTC-B2AmOx2r-15" target="GTf8PSnhSUS8eDT8XuDn-80" edge="1">
          <mxGeometry width="100" height="100" relative="1" as="geometry">
            <mxPoint x="210" y="435" as="sourcePoint" />
            <mxPoint x="150" y="625.5700000000002" as="targetPoint" />
          </mxGeometry>
        </mxCell>
        <mxCell id="WUxSzj_yl-gBvt-Xqajz-2" value="&lt;div&gt;&lt;br&gt;&lt;/div&gt;" style="edgeLabel;html=1;align=center;verticalAlign=middle;resizable=0;points=[];" parent="WUxSzj_yl-gBvt-Xqajz-1" vertex="1" connectable="0">
          <mxGeometry x="-0.2171" y="-1" relative="1" as="geometry">
            <mxPoint x="-19" y="15" as="offset" />
          </mxGeometry>
        </mxCell>
        <mxCell id="WUxSzj_yl-gBvt-Xqajz-10" value="&lt;div&gt;pruefen&lt;/div&gt;" style="edgeLabel;html=1;align=center;verticalAlign=middle;resizable=0;points=[];" parent="WUxSzj_yl-gBvt-Xqajz-1" vertex="1" connectable="0">
          <mxGeometry x="-0.2844" y="1" relative="1" as="geometry">
            <mxPoint x="-35" y="-16" as="offset" />
          </mxGeometry>
        </mxCell>
      </root>
    </mxGraphModel>
  </diagram>
</mxfile>
